<svg width="1280" height="300" viewBox="0 0 1280 300" fill="none" xmlns="http://www.w3.org/2000/svg">
<g filter="url(#filter0_d_1_3)">
<path d="M457.099 146.92V167.944C457.099 168.648 456.747 169 456.043 169H448.747C448.043 169 447.691 168.648 447.691 167.944V116.776C447.691 116.008 448.043 115.624 448.747 115.624H449.611C452.043 115.624 453.899 116.296 455.179 117.64C456.459 118.92 457.099 121.064 457.099 124.072V138.376H478.123V116.776C478.123 116.008 478.475 115.624 479.179 115.624H480.043C482.539 115.624 484.395 116.296 485.611 117.64C486.891 118.92 487.531 121.064 487.531 124.072V167.944C487.531 168.648 487.211 169 486.571 169H479.179C478.475 169 478.123 168.648 478.123 167.944V146.92H457.099ZM496.775 123.496C496.775 121.96 497.255 120.712 498.215 119.752C499.239 118.728 500.487 118.216 501.959 118.216C503.431 118.216 504.647 118.728 505.607 119.752C506.631 120.712 507.143 121.96 507.143 123.496C507.143 124.968 506.631 126.216 505.607 127.24C504.647 128.264 503.431 128.776 501.959 128.776C500.487 128.776 499.239 128.264 498.215 127.24C497.255 126.216 496.775 124.968 496.775 123.496ZM498.407 169C497.767 169 497.447 168.648 497.447 167.944V134.056C497.447 133.288 497.767 132.904 498.407 132.904H498.887C501.319 132.904 503.207 133.544 504.551 134.824C505.895 136.104 506.567 138.184 506.567 141.064V167.944C506.567 168.648 506.215 169 505.511 169H498.407ZM530.731 153.064L529.771 116.776C529.771 116.008 530.091 115.624 530.731 115.624H531.595C534.027 115.624 535.883 116.296 537.163 117.64C538.507 118.92 539.147 121.064 539.083 124.072L538.315 153.064C538.315 153.768 537.995 154.12 537.355 154.12H531.787C531.083 154.12 530.731 153.768 530.731 153.064ZM534.475 169.96C532.939 169.96 531.595 169.416 530.443 168.328C529.355 167.176 528.811 165.768 528.811 164.104C528.811 162.44 529.355 161.064 530.443 159.976C531.595 158.888 532.939 158.344 534.475 158.344C536.139 158.344 537.483 158.888 538.507 159.976C539.595 161.064 540.139 162.44 540.139 164.104C540.139 165.832 539.595 167.24 538.507 168.328C537.483 169.416 536.139 169.96 534.475 169.96ZM564.528 169C563.824 169 563.472 168.648 563.472 167.944V116.776C563.472 116.008 563.824 115.624 564.528 115.624H565.392C567.888 115.624 569.744 116.264 570.96 117.544C572.24 118.824 572.88 120.968 572.88 123.976V167.944C572.88 168.648 572.528 169 571.824 169H564.528ZM587.56 114.856C589.16 114.856 590.536 115.432 591.688 116.584C592.84 117.736 593.416 119.176 593.416 120.904C593.416 123.976 592.552 126.792 590.824 129.352C589.16 131.848 587.112 134.056 584.68 135.976C584.552 136.104 584.36 136.104 584.104 135.976C583.272 135.144 582.888 134.312 582.952 133.48C583.08 132.648 583.432 131.912 584.008 131.272C584.52 130.76 585.032 130.088 585.544 129.256C586.056 128.424 586.44 127.56 586.696 126.664C585.224 126.408 584.008 125.736 583.048 124.648C582.152 123.496 581.704 122.216 581.704 120.808C581.704 119.144 582.28 117.736 583.432 116.584C584.584 115.432 585.96 114.856 587.56 114.856ZM608.744 137.416C609.896 135.88 611.304 134.632 612.968 133.672C614.696 132.712 616.744 132.232 619.112 132.232C624.744 132.232 628.744 134.344 631.112 138.568C632.392 136.84 633.992 135.368 635.912 134.152C637.832 132.872 640.136 132.232 642.824 132.232C647.368 132.232 650.92 133.576 653.48 136.264C656.104 138.952 657.416 142.952 657.416 148.264V167.944C657.416 168.648 657.032 169 656.264 169H649.16C648.52 169 648.2 168.648 648.2 167.944V149.32C648.2 146.12 647.496 143.848 646.088 142.504C644.744 141.16 643.016 140.488 640.904 140.488C638.792 140.488 637 141.192 635.528 142.6C634.12 144.008 633.416 146.28 633.416 149.416V167.944C633.416 168.648 633.096 169 632.456 169H625.256C624.552 169 624.2 168.648 624.2 167.944V149.32C624.2 146.12 623.528 143.848 622.184 142.504C620.84 141.16 619.08 140.488 616.904 140.488C614.728 140.488 612.936 141.192 611.528 142.6C610.12 144.008 609.416 146.28 609.416 149.416V167.944C609.416 168.648 609.064 169 608.359 169H601.064C600.488 169 600.2 168.648 600.2 167.944V134.056C600.2 133.288 600.488 132.904 601.064 132.904H601.544C603.4 132.904 604.936 133.288 606.152 134.056C607.432 134.76 608.296 135.88 608.744 137.416ZM690.802 160.264H711.25C714.962 160.264 716.818 162.056 716.818 165.64V167.656C716.818 168.552 716.37 169 715.474 169H680.338C679.698 169 679.378 168.648 679.378 167.944V162.376C679.378 161.16 679.826 159.912 680.722 158.632L705.394 124.36H681.01C680.306 124.36 679.954 124.008 679.954 123.304V116.776C679.954 116.008 680.306 115.624 681.01 115.624H710.77C712.626 115.624 714.066 116.104 715.09 117.064C716.178 117.96 716.722 119.4 716.722 121.384V122.728C716.722 123.944 716.306 125.128 715.474 126.28L690.802 160.264ZM740.196 169.96C734.564 169.96 730.052 168.232 726.66 164.776C723.332 161.32 721.668 156.712 721.668 150.952C721.668 145.256 723.332 140.712 726.66 137.32C729.988 133.864 734.468 132.136 740.1 132.136C745.732 132.136 750.212 133.864 753.54 137.32C756.868 140.712 758.532 145.256 758.532 150.952C758.532 156.648 756.9 161.256 753.636 164.776C750.372 168.232 745.892 169.96 740.196 169.96ZM740.1 161.224C742.532 161.224 744.644 160.456 746.436 158.92C748.228 157.32 749.124 154.728 749.124 151.144C749.124 147.56 748.228 144.936 746.436 143.272C744.644 141.608 742.532 140.776 740.1 140.776C737.604 140.776 735.46 141.608 733.668 143.272C731.94 144.872 731.076 147.464 731.076 151.048C731.076 154.632 731.94 157.224 733.668 158.824C735.46 160.424 737.604 161.224 740.1 161.224ZM774.197 154.216C774.517 156.776 775.637 158.728 777.557 160.072C779.477 161.416 781.909 162.088 784.853 162.088C787.285 162.088 789.301 161.832 790.901 161.32C792.501 160.808 794.101 160.104 795.701 159.208C796.277 158.824 796.789 158.632 797.237 158.632C797.941 158.632 798.293 159.08 798.293 159.976C798.293 161.32 797.781 162.76 796.757 164.296C795.797 165.832 794.261 167.176 792.149 168.328C790.037 169.416 787.221 169.96 783.701 169.96C780.245 169.96 777.077 169.256 774.197 167.848C771.381 166.376 769.141 164.232 767.477 161.416C765.813 158.536 764.98 155.016 764.98 150.856C764.98 147.208 765.685 143.976 767.093 141.16C768.565 138.344 770.613 136.136 773.237 134.536C775.925 132.936 779.061 132.136 782.645 132.136C786.485 132.136 789.589 132.936 791.957 134.536C794.389 136.072 796.149 138.088 797.237 140.584C798.389 143.08 798.965 145.736 798.965 148.552C798.965 149.512 798.933 150.376 798.869 151.144C798.869 151.848 798.837 152.456 798.773 152.968C798.709 153.8 798.165 154.216 797.141 154.216H774.197ZM774.197 147.592H789.749C789.877 146.504 789.749 145.384 789.365 144.232C789.045 143.016 788.341 141.992 787.253 141.16C786.165 140.328 784.629 139.912 782.645 139.912C780.213 139.912 778.261 140.616 776.789 142.024C775.381 143.368 774.517 145.224 774.197 147.592ZM815.483 169.864L802.619 134.056C802.555 133.8 802.555 133.544 802.619 133.288C802.747 133.032 802.939 132.904 803.195 132.904H805.211C807.835 132.904 809.755 133.448 810.971 134.536C812.251 135.624 813.435 137.672 814.523 140.68L820.475 158.536L828.539 134.152C828.923 133.32 829.435 132.904 830.075 132.904H837.179C837.499 132.904 837.691 133.032 837.755 133.288C837.819 133.544 837.819 133.8 837.755 134.056L825.275 169.096C824.187 172.232 823.003 175.016 821.723 177.448C820.507 179.944 819.003 181.896 817.211 183.304C815.419 184.712 813.147 185.416 810.395 185.416C808.347 185.416 806.619 184.968 805.211 184.072C803.803 183.24 802.747 182.152 802.043 180.808C801.339 179.464 800.986 178.152 800.986 176.872C800.986 176.424 801.082 176.008 801.274 175.624C801.466 175.24 801.755 175.048 802.139 175.048C802.267 175.048 802.395 175.08 802.523 175.144C802.715 175.272 802.875 175.4 803.003 175.528C804.731 176.808 806.459 177.448 808.187 177.448C809.979 177.448 811.387 176.872 812.411 175.72C813.435 174.632 814.459 172.68 815.483 169.864Z" fill="#FF5779"/>
</g>
<g filter="url(#filter1_i_1_3)">
<path d="M451.754 258.668V217.988H469.862V258.668H451.754ZM455.03 236.204L454.454 239.912L456.542 240.164L457.154 237.392C458.042 236.96 459.074 236.744 460.25 236.744C461.69 236.744 462.65 237.104 463.13 237.824C463.634 238.544 463.886 239.48 463.886 240.632V242.072C463.454 242.024 462.986 241.988 462.482 241.964C462.002 241.94 461.522 241.928 461.042 241.928C459.242 241.928 457.538 242.252 455.93 242.9C454.346 243.524 453.554 244.844 453.554 246.86C453.554 248.564 454.094 249.74 455.174 250.388C456.278 251.036 457.358 251.36 458.414 251.36C459.71 251.36 460.814 251.024 461.726 250.352C462.662 249.68 463.382 248.912 463.886 248.048V248.12C463.934 250.28 464.906 251.36 466.802 251.36C467.546 251.36 468.242 251.18 468.89 250.82L468.854 249.164C468.542 249.308 468.182 249.38 467.774 249.38C466.862 249.38 466.406 248.804 466.406 247.652V240.02C466.406 236.444 464.498 234.656 460.682 234.656C459.626 234.656 458.63 234.776 457.694 235.016C456.758 235.256 455.87 235.652 455.03 236.204ZM463.886 244.988C463.79 246.308 463.25 247.352 462.266 248.12C461.306 248.888 460.274 249.272 459.17 249.272C458.474 249.272 457.802 249.08 457.154 248.696C456.506 248.312 456.182 247.604 456.182 246.572C456.182 245.324 456.662 244.52 457.622 244.16C458.606 243.776 459.698 243.584 460.898 243.584C461.426 243.584 461.942 243.608 462.446 243.656C462.95 243.704 463.43 243.74 463.886 243.764V244.988ZM468.98 258.668V217.988H490.364V258.668H468.98ZM481.544 251H489.644V248.948H486.872V240.74C486.872 238.604 486.344 237.056 485.288 236.096C484.232 235.136 482.924 234.656 481.364 234.656C478.772 234.656 476.9 235.712 475.748 237.824V234.98H470.348V237.032H473.228V248.948H470.42V251H478.556V248.948H475.748V241.46C475.796 240.236 476.252 239.156 477.116 238.22C478.004 237.26 479.168 236.78 480.608 236.78C481.688 236.78 482.576 237.14 483.272 237.86C483.968 238.556 484.316 239.768 484.316 241.496V248.948H481.544V251ZM489.403 258.668V217.988H499.519V258.668H489.403ZM498.476 258.668V217.988H509.312V258.668H498.476ZM502.616 227.564V230.84H505.352V227.564H502.616ZM500.06 251H508.196V248.948H505.388V234.98H499.988V237.032H502.868V248.948H500.06V251ZM508.461 258.668V217.988H529.845V258.668H508.461ZM521.025 251H529.125V248.948H526.353V240.74C526.353 238.604 525.825 237.056 524.769 236.096C523.713 235.136 522.405 234.656 520.845 234.656C518.253 234.656 516.381 235.712 515.229 237.824V234.98H509.829V237.032H512.709V248.948H509.901V251H518.037V248.948H515.229V241.46C515.277 240.236 515.733 239.156 516.597 238.22C517.485 237.26 518.649 236.78 520.089 236.78C521.169 236.78 522.057 237.14 522.753 237.86C523.449 238.556 523.797 239.768 523.797 241.496V248.948H521.025V251ZM528.992 258.668V217.988H549.512V258.668H528.992ZM543.32 251H548.612V248.948H545.84V226.232H539.432V228.284H543.32V237.572C542.24 235.628 540.452 234.656 537.956 234.656C535.34 234.656 533.48 235.58 532.376 237.428C531.272 239.276 530.72 241.268 530.72 243.404C530.72 245.9 531.344 247.856 532.592 249.272C533.864 250.664 535.532 251.36 537.596 251.36C539.06 251.36 540.248 251 541.16 250.28C542.072 249.56 542.792 248.72 543.32 247.76V251ZM543.32 241.352V243.908C543.272 245.108 542.768 246.296 541.808 247.472C540.872 248.624 539.684 249.2 538.244 249.2C536.852 249.2 535.688 248.696 534.752 247.688C533.84 246.68 533.384 245.192 533.384 243.224C533.384 241.544 533.792 240.056 534.608 238.76C535.448 237.464 536.756 236.816 538.532 236.816C539.804 236.816 540.908 237.236 541.844 238.076C542.78 238.916 543.272 240.008 543.32 241.352ZM548.644 258.668V217.988H559.48V258.668H548.644ZM552.784 227.564V230.84H555.52V227.564H552.784ZM550.228 251H558.364V248.948H555.556V234.98H550.156V237.032H553.036V248.948H550.228V251ZM558.629 258.668V217.988H576.269V258.668H558.629ZM574.649 246.392L572.525 245.924C572.285 246.908 571.805 247.7 571.085 248.3C570.365 248.9 569.369 249.2 568.097 249.2C564.857 249.2 563.165 247.328 563.021 243.584H574.289C574.433 242.936 574.505 242.3 574.505 241.676C574.481 239.78 573.893 238.136 572.741 236.744C571.589 235.352 569.909 234.656 567.701 234.656C565.445 234.656 563.657 235.46 562.337 237.068C561.017 238.676 560.357 240.728 560.357 243.224C560.357 245.816 561.053 247.82 562.445 249.236C563.837 250.652 565.661 251.36 567.917 251.36C569.885 251.36 571.445 250.88 572.597 249.92C573.749 248.936 574.433 247.76 574.649 246.392ZM571.841 241.712H563.057C563.225 240.368 563.657 239.204 564.353 238.22C565.049 237.236 566.141 236.744 567.629 236.744C569.189 236.744 570.305 237.272 570.977 238.328C571.673 239.384 571.961 240.512 571.841 241.712ZM575.29 258.668V217.988H585.406V258.668H575.29ZM584.363 258.668V217.988H604.847V258.668H593.723C596.123 258.572 597.971 257.78 599.267 256.292C600.587 254.828 601.247 252.872 601.247 250.424V237.032H603.839V234.98H598.691V237.5C597.611 235.604 595.799 234.656 593.255 234.656C590.783 234.656 588.971 235.58 587.819 237.428C586.667 239.276 586.091 241.268 586.091 243.404C586.091 245.924 586.763 247.856 588.107 249.2C589.451 250.544 591.071 251.216 592.967 251.216C594.479 251.216 595.691 250.868 596.603 250.172C597.515 249.476 598.211 248.66 598.691 247.724V250.316C598.691 252.308 598.199 253.832 597.215 254.888C596.255 255.944 595.007 256.472 593.471 256.472C592.391 256.472 591.347 256.196 590.339 255.644C589.331 255.092 588.623 254.192 588.215 252.944L586.199 253.952C586.607 255.488 587.423 256.64 588.647 257.408C589.895 258.176 591.299 258.596 592.859 258.668H584.363ZM598.691 241.316V244.088C598.643 245.288 598.139 246.416 597.179 247.472C596.243 248.504 595.019 249.02 593.507 249.02C592.187 249.02 591.071 248.552 590.159 247.616C589.247 246.656 588.791 245.192 588.791 243.224C588.791 241.544 589.187 240.068 589.979 238.796C590.795 237.5 592.115 236.852 593.939 236.852C595.235 236.852 596.351 237.26 597.287 238.076C598.223 238.892 598.691 239.972 598.691 241.316ZM603.98 258.668V217.988H622.088V258.668H603.98ZM607.256 236.204L606.68 239.912L608.768 240.164L609.38 237.392C610.268 236.96 611.3 236.744 612.476 236.744C613.916 236.744 614.876 237.104 615.356 237.824C615.86 238.544 616.112 239.48 616.112 240.632V242.072C615.68 242.024 615.212 241.988 614.708 241.964C614.228 241.94 613.748 241.928 613.268 241.928C611.468 241.928 609.764 242.252 608.156 242.9C606.572 243.524 605.78 244.844 605.78 246.86C605.78 248.564 606.32 249.74 607.4 250.388C608.504 251.036 609.584 251.36 610.64 251.36C611.936 251.36 613.04 251.024 613.952 250.352C614.888 249.68 615.608 248.912 616.112 248.048V248.12C616.16 250.28 617.132 251.36 619.028 251.36C619.772 251.36 620.468 251.18 621.116 250.82L621.08 249.164C620.768 249.308 620.408 249.38 620 249.38C619.088 249.38 618.632 248.804 618.632 247.652V240.02C618.632 236.444 616.724 234.656 612.908 234.656C611.852 234.656 610.856 234.776 609.92 235.016C608.984 235.256 608.096 235.652 607.256 236.204ZM616.112 244.988C616.016 246.308 615.476 247.352 614.492 248.12C613.532 248.888 612.5 249.272 611.396 249.272C610.7 249.272 610.028 249.08 609.38 248.696C608.732 248.312 608.408 247.604 608.408 246.572C608.408 245.324 608.888 244.52 609.848 244.16C610.832 243.776 611.924 243.584 613.124 243.584C613.652 243.584 614.168 243.608 614.672 243.656C615.176 243.704 615.656 243.74 616.112 243.764V244.988ZM621.207 258.668V217.988H653.031V258.668H621.207ZM644.643 251H652.311V248.948H649.503V240.74C649.503 238.604 648.987 237.056 647.955 236.096C646.947 235.136 645.675 234.656 644.139 234.656C642.747 234.656 641.571 235.016 640.611 235.736C639.675 236.456 638.967 237.38 638.487 238.508C638.151 237.188 637.515 236.216 636.579 235.592C635.667 234.968 634.587 234.656 633.339 234.656C632.067 234.656 630.987 234.968 630.099 235.592C629.211 236.216 628.503 237.008 627.975 237.968V234.98H622.611V237.032H625.455V248.948H622.647V251H630.927V248.948H627.975V241.532C628.023 240.5 628.431 239.456 629.199 238.4C629.991 237.32 631.131 236.78 632.619 236.78C633.651 236.78 634.503 237.128 635.175 237.824C635.847 238.52 636.183 239.744 636.183 241.496V248.948H633.879V251H641.511V248.948H638.739V241.604C638.763 240.596 639.171 239.54 639.963 238.436C640.755 237.332 641.883 236.78 643.347 236.78C644.403 236.78 645.267 237.14 645.939 237.86C646.635 238.556 646.983 239.768 646.983 241.496V248.948H644.643V251ZM652.179 258.668V217.988H669.819V258.668H652.179ZM668.199 246.392L666.075 245.924C665.835 246.908 665.355 247.7 664.635 248.3C663.915 248.9 662.919 249.2 661.647 249.2C658.407 249.2 656.715 247.328 656.571 243.584H667.839C667.983 242.936 668.055 242.3 668.055 241.676C668.031 239.78 667.443 238.136 666.291 236.744C665.139 235.352 663.459 234.656 661.251 234.656C658.995 234.656 657.207 235.46 655.887 237.068C654.567 238.676 653.907 240.728 653.907 243.224C653.907 245.816 654.603 247.82 655.995 249.236C657.387 250.652 659.211 251.36 661.467 251.36C663.435 251.36 664.995 250.88 666.147 249.92C667.299 248.936 667.983 247.76 668.199 246.392ZM665.391 241.712H656.607C656.775 240.368 657.207 239.204 657.903 238.22C658.599 237.236 659.691 236.744 661.179 236.744C662.739 236.744 663.855 237.272 664.527 238.328C665.223 239.384 665.511 240.512 665.391 241.712ZM668.841 258.668V217.988H678.957V258.668H668.841ZM677.914 258.668V217.988H698.434V258.668H677.914ZM692.242 251H697.534V248.948H694.762V226.232H688.354V228.284H692.242V237.572C691.162 235.628 689.374 234.656 686.878 234.656C684.262 234.656 682.402 235.58 681.298 237.428C680.194 239.276 679.642 241.268 679.642 243.404C679.642 245.9 680.266 247.856 681.514 249.272C682.786 250.664 684.454 251.36 686.518 251.36C687.982 251.36 689.17 251 690.082 250.28C690.994 249.56 691.714 248.72 692.242 247.76V251ZM692.242 241.352V243.908C692.194 245.108 691.69 246.296 690.73 247.472C689.794 248.624 688.606 249.2 687.166 249.2C685.774 249.2 684.61 248.696 683.674 247.688C682.762 246.68 682.306 245.192 682.306 243.224C682.306 241.544 682.714 240.056 683.53 238.76C684.37 237.464 685.678 236.816 687.454 236.816C688.726 236.816 689.83 237.236 690.766 238.076C691.702 238.916 692.194 240.008 692.242 241.352ZM697.566 258.668V217.988H715.206V258.668H697.566ZM713.586 246.392L711.462 245.924C711.222 246.908 710.742 247.7 710.022 248.3C709.302 248.9 708.306 249.2 707.034 249.2C703.794 249.2 702.102 247.328 701.958 243.584H713.226C713.37 242.936 713.442 242.3 713.442 241.676C713.418 239.78 712.83 238.136 711.678 236.744C710.526 235.352 708.846 234.656 706.638 234.656C704.382 234.656 702.594 235.46 701.274 237.068C699.954 238.676 699.294 240.728 699.294 243.224C699.294 245.816 699.99 247.82 701.382 249.236C702.774 250.652 704.598 251.36 706.854 251.36C708.822 251.36 710.382 250.88 711.534 249.92C712.686 248.936 713.37 247.76 713.586 246.392ZM710.778 241.712H701.994C702.162 240.368 702.594 239.204 703.29 238.22C703.986 237.236 705.078 236.744 706.566 236.744C708.126 236.744 709.242 237.272 709.914 238.328C710.61 239.384 710.898 240.512 710.778 241.712ZM714.336 258.668V217.988H733.38V258.668H714.336ZM730.392 237.032H732.696V234.98H725.676V237.032H727.872L724.236 247.58H724.02L719.916 237.032H722.328V234.98H714.948V237.032H717.18L722.94 251H724.884L730.392 237.032ZM732.511 258.668V217.988H750.151V258.668H732.511ZM748.531 246.392L746.407 245.924C746.167 246.908 745.687 247.7 744.967 248.3C744.247 248.9 743.251 249.2 741.979 249.2C738.739 249.2 737.047 247.328 736.903 243.584H748.171C748.315 242.936 748.387 242.3 748.387 241.676C748.363 239.78 747.775 238.136 746.623 236.744C745.471 235.352 743.791 234.656 741.583 234.656C739.327 234.656 737.539 235.46 736.219 237.068C734.899 238.676 734.239 240.728 734.239 243.224C734.239 245.816 734.935 247.82 736.327 249.236C737.719 250.652 739.543 251.36 741.799 251.36C743.767 251.36 745.327 250.88 746.479 249.92C747.631 248.936 748.315 247.76 748.531 246.392ZM745.723 241.712H736.939C737.107 240.368 737.539 239.204 738.235 238.22C738.931 237.236 740.023 236.744 741.511 236.744C743.071 236.744 744.187 237.272 744.859 238.328C745.555 239.384 745.843 240.512 745.723 241.712ZM749.281 258.668V217.988H759.577V258.668H749.281ZM750.361 251H758.497V248.948H755.689V226.232H750.325V228.284H753.169V248.948H750.361V251ZM758.703 258.668V217.988H777.891V258.668H758.703ZM768.315 234.62C765.723 234.62 763.755 235.46 762.411 237.14C761.067 238.796 760.395 240.788 760.395 243.116C760.395 245.54 761.079 247.52 762.447 249.056C763.839 250.592 765.747 251.36 768.171 251.36C770.643 251.36 772.599 250.568 774.039 248.984C775.479 247.4 776.199 245.396 776.199 242.972C776.199 240.692 775.539 238.736 774.219 237.104C772.899 235.448 770.931 234.62 768.315 234.62ZM768.243 249.2C766.539 249.2 765.243 248.6 764.355 247.4C763.467 246.2 763.023 244.724 763.023 242.972C763.023 241.196 763.467 239.72 764.355 238.544C765.267 237.368 766.563 236.78 768.243 236.78C769.923 236.78 771.219 237.356 772.131 238.508C773.067 239.636 773.535 241.112 773.535 242.936C773.535 244.736 773.079 246.236 772.167 247.436C771.255 248.612 769.947 249.2 768.243 249.2ZM780.691 256.616H777.847V258.668H777.019V217.988H797.503V258.668H786.919V256.616H783.211V248.66C784.315 250.46 786.079 251.36 788.503 251.36C790.255 251.36 791.659 250.928 792.715 250.064C793.795 249.176 794.575 248.06 795.055 246.716C795.559 245.348 795.811 243.956 795.811 242.54C795.811 240.068 795.175 238.136 793.903 236.744C792.631 235.352 790.963 234.656 788.899 234.656C787.411 234.656 786.211 235.028 785.299 235.772C784.387 236.516 783.691 237.368 783.211 238.328V234.98H777.811V237.032H780.691V256.616ZM793.147 242.756C793.147 244.46 792.739 245.96 791.923 247.256C791.107 248.552 789.799 249.2 787.999 249.2C786.679 249.2 785.551 248.744 784.615 247.832C783.679 246.92 783.211 245.792 783.211 244.448V242.072C783.259 240.848 783.751 239.672 784.687 238.544C785.623 237.392 786.811 236.816 788.251 236.816C789.643 236.816 790.807 237.332 791.743 238.364C792.679 239.372 793.147 240.836 793.147 242.756ZM796.636 258.668V217.988H814.276V258.668H796.636ZM812.656 246.392L810.532 245.924C810.292 246.908 809.812 247.7 809.092 248.3C808.372 248.9 807.376 249.2 806.104 249.2C802.864 249.2 801.172 247.328 801.028 243.584H812.296C812.44 242.936 812.512 242.3 812.512 241.676C812.488 239.78 811.9 238.136 810.748 236.744C809.596 235.352 807.916 234.656 805.708 234.656C803.452 234.656 801.664 235.46 800.344 237.068C799.024 238.676 798.364 240.728 798.364 243.224C798.364 245.816 799.06 247.82 800.452 249.236C801.844 250.652 803.668 251.36 805.924 251.36C807.892 251.36 809.452 250.88 810.604 249.92C811.756 248.936 812.44 247.76 812.656 246.392ZM809.848 241.712H801.064C801.232 240.368 801.664 239.204 802.36 238.22C803.056 237.236 804.148 236.744 805.636 236.744C807.196 236.744 808.312 237.272 808.984 238.328C809.68 239.384 809.968 240.512 809.848 241.712ZM813.406 258.668V217.988H829.246V258.668H813.406ZM823.99 234.692C823.078 234.692 822.262 235.004 821.542 235.628C820.846 236.228 820.342 236.972 820.03 237.86V234.98H814.774V237.032H817.654V248.948H814.846V251H823.882V248.948H820.174V241.064C820.174 239.816 820.486 238.808 821.11 238.04C821.734 237.248 822.514 236.852 823.45 236.852C823.858 236.852 824.266 236.924 824.674 237.068L825.286 239.804L827.338 239.552L826.726 235.52C826.054 234.968 825.142 234.692 823.99 234.692Z" fill="#6941D3"/>
</g>
<g filter="url(#filter2_d_1_3)">
<path d="M1046.12 150.742C1043.57 150.235 1041.93 147.88 1042.2 145.341L1042.12 145.303C1043.01 135.309 1044.43 127.45 1046.52 122.098C1048.16 117.908 1049.1 113.578 1049.42 109.116C1049.76 104.2 1050.05 99.2741 1050.22 94.3728C1050.4 89.1349 1051.01 83.9191 1052.05 78.7525C1052.99 74.1083 1053.54 69.4351 1053.76 64.7361C1053.98 60.0585 1053.82 55.3843 1053.24 50.7196C1052.62 45.6196 1052.22 40.5034 1052.08 35.3861C1051.94 30.5157 1051.71 25.6325 1051.31 20.7487C1050.93 15.9392 1050.22 13.0925 1049.55 11.6765L1047.97 8.38328L1047.65 7.72478L1047.52 6.98475L1047.52 6.86758C1047.09 4.14621 1048.96 1.60228 1051.68 1.16913C1053.94 0.811102 1056.05 2.05267 1056.96 4.04607L1056.96 4.00701L1058.58 7.29955L1058.58 7.33861C1060.06 10.46 1060.85 14.851 1061.26 19.95C1061.67 25.0036 1061.94 30.0517 1062.07 35.0944C1062.2 39.8946 1062.56 44.7042 1063.15 49.4919C1063.79 54.7125 1064.01 59.946 1063.77 65.1865C1063.53 70.3998 1062.89 75.5875 1061.85 80.7301C1060.92 85.3587 1060.35 90.0249 1060.18 94.7067C1060.01 99.7278 1059.75 104.767 1059.39 109.801C1059.01 115.28 1057.81 120.594 1055.8 125.725C1054.25 129.703 1052.97 136.402 1052.1 146.184L1052.03 146.732L1051.99 146.811C1051.45 149.517 1048.83 151.276 1046.12 150.742Z" fill="#FF5779"/>
<path d="M1047.94 151.96C1045.65 153.493 1042.62 152.875 1041.08 150.595L1041.04 150.635C1035.33 142.53 1031.18 136.011 1028.74 131.198C1026.68 127.114 1024.1 123.394 1021.05 120.003C1017.55 116.124 1014.35 112.07 1011.46 107.864C1009.51 105.035 1007.41 104.024 1004.87 104.033C1000.79 104.049 996.443 104.439 991.84 105.276C986.832 106.186 981.768 106.887 976.639 107.338C971.326 107.805 966.035 107.717 960.773 107.107C958.299 106.821 956.35 106.566 954.978 106.349C954.307 106.243 953.655 106.152 953.136 106.03C952.893 105.972 952.525 105.871 952.154 105.734C951.972 105.666 951.675 105.518 951.327 105.319C951.166 105.227 950.744 104.846 950.215 104.283C950.118 104.196 950.026 104.109 949.936 104.015C949.816 103.865 949.611 103.772 949.499 103.593L949.178 103.09L949.094 102.779C948.768 102.118 948.512 101.389 948.509 100.602C948.508 97.8487 950.747 95.6041 953.501 95.5919L953.618 95.5898L957.213 95.6052L957.582 96.6146C958.68 96.7693 960.129 96.9943 961.929 97.2029C966.509 97.7326 971.12 97.7601 975.762 97.3521C980.59 96.9275 985.363 96.3165 990.067 95.4615C995.172 94.5336 1000.09 94.0516 1004.81 94.0321C1011.06 94.0076 1016.14 97.001 1019.72 102.211C1022.36 106.044 1025.3 109.75 1028.51 113.309C1032.15 117.349 1035.19 121.809 1037.65 126.667C1039.75 130.811 1043.58 136.856 1049.22 144.866L1049.22 144.905L1049.26 144.944L1049.3 145.06C1050.84 147.352 1050.23 150.422 1047.94 151.96Z" fill="#FF5779"/>
<path d="M929.667 148.439C927.178 147.246 926.134 144.289 927.324 141.799L927.361 141.681L927.437 141.562L927.513 141.405C932.341 132.87 936.125 126.389 938.856 122.024C941.192 118.291 942.772 114.286 943.569 109.987C944.038 107.448 944.503 105.248 945.018 103.476C945.494 101.84 946.143 100.063 947.083 98.713L947.122 98.6733L948.418 96.8145L948.497 96.8912C949.807 94.9643 952.25 94.0915 954.481 95.0287C957.019 96.1022 958.203 99.043 957.135 101.585L957.097 101.664L956.872 102.176L956.567 102.65L955.271 104.469C955.202 104.613 954.964 105.12 954.638 106.239C954.252 107.564 953.844 109.401 953.406 111.769C952.382 117.311 950.346 122.512 947.348 127.307C944.737 131.478 941.045 137.825 936.233 146.332L936.193 146.293C934.939 148.637 932.089 149.598 929.667 148.439Z" fill="#FF5779"/>
<path d="M932.321 150.306C930.042 151.568 927.284 150.812 925.846 148.7L925.769 148.741C920.003 140.571 915.954 133.702 914.005 128.318C912.411 123.919 910.386 119.76 907.927 115.844C905.114 111.366 902.73 106.65 900.765 101.709C898.739 96.6134 897.438 91.314 896.894 85.8758C896.396 80.8955 895.916 75.9287 895.462 70.9766C895.018 66.1418 894.441 61.306 893.685 56.4742C892.865 51.2345 892.521 45.9552 892.667 40.6692C892.817 35.2701 893.65 29.9518 895.163 24.7248C896.445 20.2968 896.723 16.9241 896.351 14.4681C896.084 12.7097 895.914 11.1148 895.919 9.86561C895.921 9.32051 895.949 8.36956 896.267 7.39823C896.427 6.90929 896.809 5.98485 897.673 5.14678C898.706 4.14558 900.172 3.5373 901.749 3.66916L902.023 3.70345L902.298 3.77679C902.375 3.7797 902.454 3.72717 902.532 3.73364C905.283 3.96893 907.316 6.41151 907.08 9.1629L907.082 9.24101L906.594 14.8754L906.398 14.8397C906.669 18.7312 906.087 22.9837 904.783 27.487C903.499 31.9154 902.8 36.4121 902.674 40.9634C902.545 45.6337 902.817 50.2992 903.543 54.9347C904.331 59.9739 904.984 65.0133 905.447 70.06C905.9 74.9861 906.383 79.9264 906.878 84.8811C907.329 89.3867 908.394 93.7585 910.076 97.9913C911.819 102.376 913.901 106.576 916.39 110.539C919.233 115.066 921.605 119.847 923.439 124.911C924.917 128.993 928.305 134.972 933.951 142.972L934.111 143.204L934.273 143.513C935.61 145.928 934.735 148.968 932.321 150.306Z" fill="#FF5779"/>
<path d="M1005.13 76.3787C1002.38 76.5775 999.978 74.4976 999.777 71.7449L999.776 71.7059L999.011 59.1783C998.885 55.5317 998.9 52.4037 999.043 49.8403C999.299 45.2382 998.871 42.7224 998.392 41.6083C997.902 40.47 997.503 39.4688 997.247 38.6981C997.138 38.3707 996.955 37.7991 996.869 37.181C996.839 36.964 996.748 36.1341 996.99 35.1474C997.123 34.6085 997.437 33.6162 998.315 32.7411C999.309 31.7525 1000.6 31.2947 1001.81 31.2737L1002.55 31.2607L1003.22 31.4835C1005.34 31.9306 1007.03 33.6327 1007.2 35.9068L1007.2 36.024L1007.26 36.8825C1007.35 37.1121 1007.46 37.3735 1007.58 37.6582C1009.02 41.0003 1009.29 45.4741 1009.02 50.4086C1008.77 54.8304 1009.02 61.6027 1009.76 70.8674L1009.77 71.0236C1009.96 73.7759 1007.88 76.1776 1005.13 76.3787Z" fill="#FF5779"/>
<path d="M960.072 75.2121C957.356 75.3447 955.069 73.2776 954.874 70.5756C954.141 63.0301 953.897 56.9757 954.326 52.6527C954.685 49.0298 954.407 47.2048 954.141 46.5222C953.771 45.582 953.438 44.6866 953.237 43.9595C953.156 43.6645 953.001 43.0041 952.973 42.2841C952.962 41.9885 952.919 41.0575 953.363 40.0113C953.621 39.4104 954.12 38.5741 955.007 37.912C955.937 37.2203 957.009 36.9394 957.959 36.9229L958.701 36.9099L959.408 37.132L959.369 37.1327C961.534 37.588 963.235 39.3591 963.355 41.6732L963.373 42.7277C963.389 42.7692 963.436 42.8001 963.453 42.8435C964.63 45.8289 964.664 49.6546 964.267 53.6512C963.937 56.9719 964.101 62.2295 964.819 69.6206L964.825 69.9721C964.96 72.7228 962.825 75.0691 960.072 75.2121Z" fill="#FF5779"/>
</g>
<g filter="url(#filter3_i_1_3)">
<path d="M315.319 191.369C318.513 191.329 321.33 192.456 323.64 194.67C325.744 196.688 327.33 199.062 328.366 201.78C329.133 203.792 330.314 205.576 331.94 207.131C332.972 208.116 333.847 209.116 334.44 210.119C335.022 211.105 335.48 212.346 335.28 213.694V213.733L335.261 213.791L334.987 215.159C334.933 215.991 334.527 216.786 333.737 217.209C332.521 217.858 331.01 217.39 330.358 216.174L330.3 216.096L329.89 215.315L330.046 214.455L330.339 212.952C330.304 213.184 330.405 213.134 330.124 212.659C329.853 212.203 329.337 211.559 328.483 210.744C326.339 208.694 324.737 206.299 323.698 203.577C322.927 201.552 321.754 199.791 320.183 198.284C318.814 196.971 317.252 196.346 315.378 196.369C312.883 196.401 310.41 196.503 307.976 196.643C305.73 196.773 303.523 197.2 301.354 197.932C299.411 198.589 297.798 199.694 296.472 201.272C294.997 203.026 293.798 204.902 292.897 206.916C291.929 209.083 291.052 211.311 290.261 213.596C289.589 215.538 289.182 218.835 289.187 223.694V223.967L289.128 224.241L289.108 224.338C288.806 225.681 287.465 226.531 286.12 226.233C284.923 225.965 284.178 224.878 284.226 223.694H284.187C284.182 218.711 284.578 214.72 285.534 211.955C286.371 209.537 287.319 207.185 288.347 204.885C289.443 202.433 290.877 200.15 292.644 198.049C294.558 195.773 296.939 194.137 299.753 193.186C302.342 192.311 305.001 191.798 307.702 191.643C310.213 191.499 312.752 191.402 315.319 191.369Z" fill="#6941D2"/>
<path d="M330.85 212.208C331.854 211.263 333.438 211.302 334.385 212.306C335.232 213.206 335.224 214.535 334.502 215.49L334.541 215.509L334.424 215.685L334.444 215.665C334.433 215.683 334.404 215.731 334.365 215.802C334.288 215.945 334.18 216.159 334.033 216.447C333.736 217.029 333.309 217.873 332.764 218.986C331.436 221.695 329.414 223.761 326.748 225.119C324.59 226.216 322.418 227.353 320.244 228.517C317.986 229.726 315.662 230.834 313.291 231.837C311.231 232.71 309.327 233.884 307.588 235.373C305.422 237.226 303.001 238.63 300.322 239.552C298.008 240.349 295.761 241.231 293.584 242.189C291.25 243.217 288.845 244.1 286.397 244.845C283.797 245.636 281.124 246.015 278.389 245.978C275.689 245.941 273.052 245.558 270.518 244.826C269.138 244.426 267.668 243.726 266.787 242.384C265.804 240.885 265.955 239.217 266.514 237.833C267.35 235.764 268.66 233.69 270.381 231.623C272.274 229.35 274.643 227.685 277.432 226.681C278.576 226.269 279.991 225.733 281.67 225.04L287.53 222.521C288.729 221.937 290.192 222.391 290.83 223.576C291.484 224.792 291.011 226.32 289.795 226.974L289.717 227.013L289.619 227.052L289.541 227.111C285.068 229.078 281.586 230.504 279.131 231.388C277.178 232.091 275.549 233.223 274.229 234.806C272.742 236.591 271.736 238.225 271.143 239.689C271.301 239.776 271.547 239.912 271.924 240.021C274.012 240.624 276.184 240.946 278.447 240.978C280.676 241.009 282.847 240.701 284.951 240.06C287.209 239.373 289.422 238.546 291.572 237.599C293.874 236.586 296.245 235.664 298.682 234.826C300.76 234.11 302.652 233.033 304.346 231.583C306.468 229.767 308.798 228.304 311.338 227.228C313.57 226.283 315.757 225.24 317.881 224.103C320.086 222.923 322.292 221.779 324.483 220.665C326.163 219.81 327.41 218.537 328.272 216.779C328.821 215.658 329.264 214.781 329.58 214.162C329.736 213.857 329.863 213.598 329.971 213.4C330.022 213.306 330.156 213.085 330.303 212.873L330.42 212.677L330.576 212.462L330.772 212.267L330.85 212.208Z" fill="#6941D2"/>
<path d="M298.755 237.302L298.853 237.361L299.283 237.654L299.576 238.084C302.245 242.144 304.36 244.498 305.884 245.525C307.331 246.501 308.967 246.928 310.923 246.736C312.195 246.611 313.27 246.519 314.126 246.482C314.925 246.447 315.721 246.441 316.333 246.541H316.314L317.193 246.677L317.447 246.697L317.681 246.795L317.759 246.814C319.061 247.274 319.762 248.715 319.302 250.017C318.885 251.192 317.678 251.802 316.49 251.58V251.619L315.572 251.482H315.533C315.533 251.482 315.429 251.467 315.201 251.463C314.986 251.459 314.701 251.467 314.341 251.482C313.613 251.514 312.637 251.596 311.412 251.717C308.378 252.014 305.563 251.349 303.091 249.685C300.713 248.082 298.193 245.027 295.494 240.935C294.846 240.122 294.708 238.988 295.298 238.064C296.044 236.905 297.595 236.561 298.755 237.302Z" fill="#6941D2"/>
<path d="M333.792 220.332C334.843 220.441 335.653 221.187 335.92 222.149C338.193 226.24 339.382 230.195 338.069 233.516C337.093 235.982 335.865 238.311 334.377 240.488C332.858 242.712 331.025 244.697 328.909 246.445C326.707 248.264 324.229 249.585 321.487 250.391C320.279 250.746 319.368 251.026 318.752 251.211C318.448 251.303 318.219 251.359 318.069 251.406L317.834 251.524L317.542 251.563C316.529 251.82 315.424 251.454 314.827 250.527C314.084 249.368 314.43 247.817 315.588 247.07L315.667 247.012L316.116 246.738L316.467 246.66C316.498 246.651 316.533 246.651 316.565 246.641C316.743 246.585 316.995 246.5 317.307 246.406C317.938 246.217 318.87 245.942 320.081 245.586C322.172 244.971 324.048 243.982 325.725 242.598C327.487 241.142 328.99 239.499 330.237 237.676C331.515 235.806 332.579 233.804 333.42 231.68C333.874 230.533 333.688 228.23 331.35 224.16L330.959 223.457L331.038 222.656L331.057 222.559C331.197 221.189 332.42 220.196 333.792 220.332Z" fill="#6941D2"/>
<path d="M311.273 235.096C312.332 234.745 313.424 235.156 314.046 236.014C314.557 236.665 315.028 237.579 315.081 238.631C315.273 238.847 315.501 239.169 315.628 239.607C315.94 240.695 315.458 241.642 314.925 242.146C314.525 242.523 314.098 242.67 313.968 242.713L313.304 242.928L313.011 242.85C312.409 242.845 311.856 242.633 311.409 242.244C310.831 241.915 310.282 241.378 310.042 240.545C309.894 240.029 309.935 239.54 310.003 239.139L309.847 238.748L309.71 238.338L309.691 238.24L309.222 236.834L309.671 236.951C309.85 236.114 310.402 235.386 311.273 235.096Z" fill="#6941D2"/>
<path d="M325.724 230.077C326.912 230.077 327.853 230.919 328.107 232.03L328.126 232.01C328.394 232.978 328.525 234.164 328.146 235.311C328.241 235.5 328.439 235.943 328.419 236.542C328.391 237.389 327.945 238.185 327.189 238.632C326.616 238.968 326.068 238.983 325.88 238.983H325.177L324.923 238.807C324.223 238.566 323.682 238.051 323.419 237.362C323.056 236.839 322.831 236.22 322.853 235.526C322.872 234.974 323.036 234.49 323.224 234.1V231.913L323.361 231.991C323.63 230.901 324.551 230.077 325.724 230.077Z" fill="#6941D2"/>
<path d="M370.244 228.194C370.064 228.237 369.91 228.274 369.789 228.307C369.713 228.329 369.671 228.343 369.668 228.344C369.703 228.332 369.744 228.32 369.789 228.307C369.889 228.279 370.045 228.237 370.244 228.194Z" fill="#D9D9D9"/>
<path d="M350.135 196.786C351.657 195.567 353.496 195.713 354.94 196.18C358.018 197.177 359.905 199.507 360.584 202.684C361.102 205.108 361.608 207.511 362.088 209.891C362.264 210.764 362.52 211.075 362.616 211.161C362.667 211.207 362.817 211.322 363.319 211.298C365.919 211.173 368.376 211.929 369.901 214.149C370.508 215.035 370.917 216.149 370.799 217.391C372.896 217.487 374.855 218.095 376.619 219.247C377.779 220.004 379.221 221.371 379.041 223.446C378.878 225.292 377.472 226.573 376.326 227.372C375.625 227.861 374.989 228.262 374.451 228.622C374.905 229.12 375.307 229.62 375.565 230.165C375.965 231.011 376.167 232.111 375.721 233.251C375.298 234.325 374.465 234.995 373.729 235.399C371.557 236.587 369.088 237.272 366.385 237.489C363.957 237.684 361.487 237.846 358.983 237.997C356.51 238.146 354.464 238.31 352.85 238.466C352.001 238.547 351.239 238.59 350.643 238.563C350.375 238.551 349.944 238.511 349.51 238.368C349.296 238.297 348.881 238.15 348.494 237.802C348.048 237.399 347.638 236.73 347.635 235.868V235.497C347.64 234.12 348.758 232.997 350.135 232.997H353.534L353.416 233.407C354.909 233.277 356.673 233.138 358.69 233.016C361.157 232.867 363.586 232.7 365.975 232.509C367.597 232.378 368.984 231.96 370.213 231.454C370.152 231.401 370.085 231.353 370.018 231.298C369.76 231.267 369.53 231.233 369.354 231.161C369.31 231.143 369.277 231.102 369.237 231.083L368.162 231.415L367.479 229.559L367.381 229.384L366.698 228.934L366.932 228.583L365.975 226.845L367.459 226.376V226.356L367.498 226.337L367.518 226.317C367.949 225.758 368.69 225.311 369.588 225.341C369.633 225.342 369.682 225.356 369.725 225.36C369.915 225.35 370.087 225.372 370.252 225.399C370.441 225.287 370.706 225.131 371.014 224.93C371.628 224.531 372.45 223.985 373.475 223.27L373.514 223.231C372.297 222.546 370.864 222.24 369.08 222.45C368.414 222.529 367.782 222.576 367.244 222.567C366.979 222.562 366.683 222.542 366.385 222.489C366.112 222.441 365.663 222.335 365.213 222.059C364.715 221.753 364.079 221.144 363.924 220.165C363.787 219.283 364.131 218.585 364.334 218.251C364.716 217.626 365.297 217.166 365.662 216.903V216.884C365.402 216.581 364.895 216.234 363.553 216.298C362.018 216.37 360.497 215.982 359.276 214.891C358.103 213.841 357.489 212.385 357.186 210.887C356.71 208.528 356.215 206.142 355.701 203.739C355.349 202.087 354.571 201.307 353.397 200.927C353.354 200.913 353.316 200.898 353.28 200.887C353.24 201.047 353.187 201.271 353.162 201.571C352.963 203.995 352.965 206.386 353.162 208.739C353.391 211.469 353.221 214.18 352.674 216.864C352.053 219.912 350.093 223.013 347.244 226.18C346.636 227.037 345.568 227.484 344.51 227.157C343.194 226.749 342.464 225.349 342.869 224.032L342.889 223.934L343.065 223.407L343.436 222.997C346.11 220.052 347.403 217.678 347.772 215.868C348.224 213.648 348.371 211.408 348.182 209.149C347.961 206.515 347.96 203.853 348.182 201.161C348.306 199.658 348.738 197.906 350.135 196.786Z" fill="#6941D2"/>
</g>
<defs>
<filter id="filter0_d_1_3" x="443.691" y="114.856" width="398.16" height="78.56" filterUnits="userSpaceOnUse" color-interpolation-filters="sRGB">
<feFlood flood-opacity="0" result="BackgroundImageFix"/>
<feColorMatrix in="SourceAlpha" type="matrix" values="0 0 0 0 0 0 0 0 0 0 0 0 0 0 0 0 0 0 127 0" result="hardAlpha"/>
<feOffset dy="4"/>
<feGaussianBlur stdDeviation="2"/>
<feComposite in2="hardAlpha" operator="out"/>
<feColorMatrix type="matrix" values="0 0 0 0 0 0 0 0 0 0 0 0 0 0 0 0 0 0 0.25 0"/>
<feBlend mode="normal" in2="BackgroundImageFix" result="effect1_dropShadow_1_3"/>
<feBlend mode="normal" in="SourceGraphic" in2="effect1_dropShadow_1_3" result="shape"/>
</filter>
<filter id="filter1_i_1_3" x="451.754" y="217.988" width="377.492" height="44.68" filterUnits="userSpaceOnUse" color-interpolation-filters="sRGB">
<feFlood flood-opacity="0" result="BackgroundImageFix"/>
<feBlend mode="normal" in="SourceGraphic" in2="BackgroundImageFix" result="shape"/>
<feColorMatrix in="SourceAlpha" type="matrix" values="0 0 0 0 0 0 0 0 0 0 0 0 0 0 0 0 0 0 127 0" result="hardAlpha"/>
<feOffset dy="4"/>
<feGaussianBlur stdDeviation="2"/>
<feComposite in2="hardAlpha" operator="arithmetic" k2="-1" k3="1"/>
<feColorMatrix type="matrix" values="0 0 0 0 0 0 0 0 0 0 0 0 0 0 0 0 0 0 0.25 0"/>
<feBlend mode="normal" in2="shape" result="effect1_innerShadow_1_3"/>
</filter>
<filter id="filter2_d_1_3" x="888.634" y="1.10778" width="179.231" height="159.695" filterUnits="userSpaceOnUse" color-interpolation-filters="sRGB">
<feFlood flood-opacity="0" result="BackgroundImageFix"/>
<feColorMatrix in="SourceAlpha" type="matrix" values="0 0 0 0 0 0 0 0 0 0 0 0 0 0 0 0 0 0 127 0" result="hardAlpha"/>
<feOffset dy="4"/>
<feGaussianBlur stdDeviation="2"/>
<feComposite in2="hardAlpha" operator="out"/>
<feColorMatrix type="matrix" values="0 0 0 0 0 0 0 0 0 0 0 0 0 0 0 0 0 0 0.25 0"/>
<feBlend mode="normal" in2="BackgroundImageFix" result="effect1_dropShadow_1_3"/>
<feBlend mode="normal" in="SourceGraphic" in2="effect1_dropShadow_1_3" result="shape"/>
</filter>
<filter id="filter3_i_1_3" x="266.072" y="191.368" width="112.985" height="64.417" filterUnits="userSpaceOnUse" color-interpolation-filters="sRGB">
<feFlood flood-opacity="0" result="BackgroundImageFix"/>
<feBlend mode="normal" in="SourceGraphic" in2="BackgroundImageFix" result="shape"/>
<feColorMatrix in="SourceAlpha" type="matrix" values="0 0 0 0 0 0 0 0 0 0 0 0 0 0 0 0 0 0 127 0" result="hardAlpha"/>
<feOffset dy="4"/>
<feGaussianBlur stdDeviation="2"/>
<feComposite in2="hardAlpha" operator="arithmetic" k2="-1" k3="1"/>
<feColorMatrix type="matrix" values="0 0 0 0 0 0 0 0 0 0 0 0 0 0 0 0 0 0 0.25 0"/>
<feBlend mode="normal" in2="shape" result="effect1_innerShadow_1_3"/>
</filter>
</defs>
</svg>
